<?xml version="1.0" encoding="UTF-8"?>
<svg version="1.1" xmlns="http://www.w3.org/2000/svg" width="256" height="275">
<path d="M0 0 C84.48 0 168.96 0 256 0 C256 90.75 256 181.5 256 275 C171.52 275 87.04 275 0 275 C0 184.25 0 93.5 0 0 Z " fill="#076073" transform="translate(0,0)"/>
<path d="M0 0 C2.84913099 1.02076205 2.84913099 1.02076205 5.87109375 0.875 C6.86109375 2.36 6.86109375 2.36 7.87109375 3.875 C9.86373787 5.004165 11.87924904 5.87835806 13.99609375 6.75 C15.87109375 7.875 15.87109375 7.875 16.76171875 9.74609375 C18.03221322 12.18419053 19.36479393 13.34302504 21.49609375 15.0625 C33.78829614 25.4996973 41.89355853 38.63449204 43.87109375 54.875 C44.54397953 67.33740532 43.45195183 79.21463398 38.87109375 90.875 C38.43796875 91.98875 38.00484375 93.1025 37.55859375 94.25 C35.39725159 97.6120878 33.61764434 98.55268803 29.87109375 99.875 C26.41687972 100.29796498 24.44368963 100.12039823 21.24609375 98.75 C18.16967299 96.32124677 16.61037908 94.41798863 14.87109375 90.875 C14.42299394 86.82343088 14.01491168 82.58736414 15.87109375 78.875 C16.53109375 78.875 17.19109375 78.875 17.87109375 78.875 C18.33515625 77.4209375 18.33515625 77.4209375 18.80859375 75.9375 C19.87109375 72.875 19.87109375 72.875 20.87109375 71.875 C21.75399591 59.16699836 21.00802868 48.03417731 12.625 37.78125 C3.98483907 28.39060738 -5.91751264 21.78370446 -18.890625 20.50390625 C-31.32763514 20.29352896 -40.90289852 22.73212959 -50.15625 31.6328125 C-57.16319243 39.59713914 -60.52440501 47.98544355 -60.33203125 58.58203125 C-60.09150546 61.29719739 -59.25723669 63.40677716 -58.12890625 65.875 C-57.69609145 69.14816191 -57.78465551 70.42396779 -59.81640625 73.0859375 C-60.57953125 73.80007812 -61.34265625 74.51421875 -62.12890625 75.25 C-62.95003906 76.02730469 -63.77117187 76.80460937 -64.6171875 77.60546875 C-67.47226171 80.18524809 -70.34773036 82.73496851 -73.2734375 85.234375 C-75.10639474 86.85509509 -76.80547666 88.55238411 -78.50390625 90.3125 C-81.12890625 92.875 -81.12890625 92.875 -83.12890625 92.875 C-83.94991939 90.6906809 -84.76033107 88.50237564 -85.56640625 86.3125 C-86.01886719 85.09433594 -86.47132812 83.87617188 -86.9375 82.62109375 C-92.16290714 66.19104311 -89.08131912 48.95325913 -82.06640625 33.625 C-75.98836993 22.25777889 -66.2935251 12.37611277 -55.12890625 5.875 C-51.7734375 5.13671875 -51.7734375 5.13671875 -49.12890625 4.875 C-49.12890625 4.215 -49.12890625 3.555 -49.12890625 2.875 C-47.47890625 2.545 -45.82890625 2.215 -44.12890625 1.875 C-44.12890625 1.215 -44.12890625 0.555 -44.12890625 -0.125 C-29.68557061 -5.05687071 -14.43812637 -4.55441445 0 0 Z " fill="#00B9EC" transform="translate(150.12890625,66.125)"/>
<path d="M0 0 C6.38773637 -0.27088896 10.02973221 0.42917131 15.23046875 4.19140625 C17.63781465 6.59875215 17.60441433 7.37197327 17.73046875 10.69140625 C17.68005581 15.08993535 16.70434146 17.46062008 14.23046875 21.06640625 C10.49368242 26.7292796 10.06944061 31.55695976 11.23046875 38.19140625 C12.92688175 43.40232889 14.97876351 47.12612519 19.16796875 50.69140625 C33.27415692 57.60055964 48.9317059 53.90462087 63.23046875 49.19140625 C72.03505882 45.75014959 80.15289961 40.87363409 87.99609375 35.63671875 C90.02472215 34.32449409 92.04828789 33.22243665 94.23046875 32.19140625 C88.38037207 45.16668918 73.21031668 55.25086295 61.23046875 62.19140625 C60.2146875 62.79597656 59.19890625 63.40054688 58.15234375 64.0234375 C44.60553812 71.46693631 27.03903742 73.6133259 11.859375 70.5 C0.38133726 66.69521356 -7.20716626 58.73062412 -12.76953125 48.19140625 C-15.09632987 40.57196006 -14.39716398 33.21282667 -10.83984375 26.1640625 C-10.48664063 25.51308594 -10.1334375 24.86210937 -9.76953125 24.19140625 C-9.10009594 22.85946083 -8.43261129 21.52652687 -7.76953125 20.19140625 C-16.38910925 25.09713802 -23.21880587 31.02373431 -30.34472656 37.83886719 C-33.39262431 40.73217656 -36.57845451 43.45878288 -39.76953125 46.19140625 C-40.64738281 46.97128906 -41.52523437 47.75117188 -42.4296875 48.5546875 C-57.31061731 61.47502049 -73.62229813 70.4466193 -93.76953125 69.19140625 C-98.26195969 68.3227635 -102.66277365 67.24478505 -106.76953125 65.19140625 C-106.76953125 64.53140625 -106.76953125 63.87140625 -106.76953125 63.19140625 C-105.02929688 62.75441406 -105.02929688 62.75441406 -103.25390625 62.30859375 C-83.34220887 57.16071236 -68.69383824 47.8103867 -54.48046875 32.9453125 C-52.07680183 30.48127952 -49.48999102 28.26298404 -46.875 26.02734375 C-45.41197639 24.75160888 -43.97868298 23.44129439 -42.5703125 22.10546875 C-37.71699039 17.53291734 -32.67702945 13.57754867 -27.14453125 9.87890625 C-26.53536865 9.47051514 -25.92620605 9.06212402 -25.29858398 8.64135742 C-16.73972303 3.04769873 -10.14273755 0.70097904 0 0 Z " fill="#00C4E1" transform="translate(142.76953125,120.80859375)"/>
<path d="M0 0 C10.86153106 7.31271398 18.37543574 16.0116558 21.4375 28.875 C21.74552446 31.71480213 21.80739298 34.52017313 21.8125 37.375 C21.83699219 38.09558594 21.86148438 38.81617188 21.88671875 39.55859375 C21.91675454 45.09519119 20.50017329 48.27493735 17.4375 52.875 C16.7775 52.875 16.1175 52.875 15.4375 52.875 C15.35616209 54.79095968 15.29815633 56.70791932 15.25 58.625 C15.21519531 59.69234375 15.18039063 60.7596875 15.14453125 61.859375 C15.47055233 65.21521866 16.28862023 66.37079366 18.4375 68.875 C18.4375 69.535 18.4375 70.195 18.4375 70.875 C22.48229388 72.84111502 25.30635748 72.98831236 29.75 72.5 C30.81863281 72.38914062 31.88726562 72.27828125 32.98828125 72.1640625 C33.79652344 72.06867188 34.60476562 71.97328125 35.4375 71.875 C35.4375 72.535 35.4375 73.195 35.4375 73.875 C36.05625 74.16375 36.675 74.4525 37.3125 74.75 C39.4375 75.875 39.4375 75.875 41.4375 77.875 C44.09287372 78.44020003 46.72894713 78.61288198 49.4375 78.875 C49.1075 79.535 48.7775 80.195 48.4375 80.875 C37.1454583 84.47919486 23.62375253 86.38953448 12.5625 81.27734375 C7.37813123 77.85604157 4.38599433 72.66829118 2.4375 66.875 C1.25086474 58.80816224 2.57208372 53.96985296 7.08203125 47.328125 C9.32208936 43.27407171 9.54887478 39.34501473 8.4375 34.875 C5.43280744 31.54547581 2.58244781 29.99455447 -1.9453125 29.7421875 C-4.81946323 29.75037596 -7.68930001 29.80122865 -10.5625 29.875 C-11.68398437 29.86533203 -11.68398437 29.86533203 -12.828125 29.85546875 C-29.60938742 30.5080734 -44.5046645 46.54277535 -56.04150391 57.44677734 C-77.79668803 77.875 -77.79668803 77.875 -82.5625 77.875 C-83.59164657 74.76502424 -83.95775426 72.13950743 -83.5625 68.875 C-80.31107174 63.49798428 -75.26762744 59.48119982 -70.5859375 55.375 C-69.56016602 54.45980591 -69.56016602 54.45980591 -68.51367188 53.52612305 C-67.14633786 52.31523494 -65.75972 51.1257271 -64.35351562 49.96020508 C-62.51300484 48.34275112 -60.95275613 46.89379884 -59.5625 44.875 C-59.57047059 41.06107357 -60.36749495 38.46001514 -61.5625 34.875 C-62.58680382 23.96222467 -59.41087723 15.33034294 -52.5625 6.875 C-38.49832539 -8.61233513 -17.6366537 -10.49916815 0 0 Z " fill="#00153A" transform="translate(150.5625,92.125)"/>
<path d="M0 0 C3.2767453 1.40529872 4.03157679 2.04736518 6.125 5.1875 C12.40523791 14.34142252 23.85476676 19.15609549 34.38232422 21.53930664 C36.90199898 21.98275248 39.30932766 22.20106641 41.86328125 22.31640625 C42.74951172 22.35830078 43.63574219 22.40019531 44.54882812 22.44335938 C45.9168457 22.50233398 45.9168457 22.50233398 47.3125 22.5625 C48.24384766 22.60568359 49.17519531 22.64886719 50.13476562 22.69335938 C52.42304454 22.79897225 54.71142372 22.90107752 57 23 C55.86315961 26.93479222 54.88450749 29.63095929 51.875 32.4375 C51.25367188 33.0253125 50.63234375 33.613125 49.9921875 34.21875 C48.01655412 35.98519866 46.01323299 37.7141099 44 39.4375 C41.27387057 41.78165736 38.88374907 44.19274359 36.5625 46.9375 C33.36976636 50.70873354 29.85654595 53.92261414 26.11328125 57.140625 C23.92707805 58.98439969 23.92707805 58.98439969 21.98046875 61.296875 C20 63 20 63 17.99609375 62.95703125 C15.62972383 61.82247033 13.98935548 60.46936438 12.0625 58.6875 C9.89278213 56.70993426 7.78144707 54.83475266 5.4375 53.0625 C3.33274274 51.28155155 1.72802689 49.57608108 -0.04296875 47.484375 C-4.37990128 42.48257053 -9.04728813 37.8429667 -13.75 33.1875 C-14.59949219 32.34251953 -15.44898437 31.49753906 -16.32421875 30.62695312 C-17.89044206 29.06938982 -19.45769742 27.51286304 -21.02636719 25.95776367 C-22.00331543 24.98867065 -22.00331543 24.98867065 -23 24 C-23.56750977 23.47446533 -24.13501953 22.94893066 -24.71972656 22.4074707 C-26.50158945 20.44857682 -26.65215495 18.57405337 -27 16 C-26.19949219 15.59273682 -26.19949219 15.59273682 -25.3828125 15.17724609 C-22.91783351 13.91756933 -20.45896414 12.64637553 -18 11.375 C-17.16082031 10.94832031 -16.32164063 10.52164063 -15.45703125 10.08203125 C-9.88174758 7.18634128 -4.89772639 3.93494009 0 0 Z " fill="#00BBBB" transform="translate(109,176)"/>
<path d="M0 0 C0.66 0.33 1.32 0.66 2 1 C1.21625 2.03125 0.4325 3.0625 -0.375 4.125 C-5.04505703 10.7662709 -5.73660848 17.01422875 -5 25 C-2.26206878 33.82222283 3.25074295 41.85807323 11.39453125 46.30859375 C18.07878869 49.76326853 23.23133648 51.12900428 30.75 51.5625 C31.79607422 51.62727539 31.79607422 51.62727539 32.86328125 51.69335938 C34.57531922 51.79889596 36.28763561 51.8998991 38 52 C37 55 37 55 34.69140625 56.65625 C29.42379866 58.57377065 24.50431732 58.53289595 18.9375 58.5 C17.25503174 58.49033203 17.25503174 58.49033203 15.53857422 58.48046875 C2.10588861 58.18400175 -7.86546548 54.05815422 -18 45 C-20.23203735 42.46084123 -22.19797587 39.85890748 -24 37 C-27.64816598 38.3102568 -30.4216294 39.90959495 -33.5 42.25 C-40.64792753 47.35413388 -48.92762984 52.79672373 -58 52 C-60.375 50.6875 -60.375 50.6875 -62 49 C-62 48.01 -62 47.02 -62 46 C-61.02160156 45.50371094 -60.04320313 45.00742188 -59.03515625 44.49609375 C-47.49425892 38.55534054 -38.3411584 31.44398518 -28.83203125 22.625 C-22.99862431 17.21803522 -16.98132645 12.127766 -10.75 7.1875 C-10.14687988 6.70667969 -9.54375977 6.22585937 -8.92236328 5.73046875 C-3.004217 1.08179374 -3.004217 1.08179374 0 0 Z " fill="#001639" transform="translate(135,140)"/>
<path d="M0 0 C0.66 0.33 1.32 0.66 2 1 C3 4 3 4 2.08203125 6.1875 C-0.94230615 10.27290887 -4.58186801 13.56414182 -8.3125 17 C-9.05951172 17.69867188 -9.80652344 18.39734375 -10.57617188 19.1171875 C-16.69026826 24.80721574 -22.56335047 30.09282862 -30 34 C-31.03511719 34.57234375 -32.07023437 35.1446875 -33.13671875 35.734375 C-40.36157681 39.63168952 -47.60284708 43.01352199 -56 43 C-56.99 42.34 -57.98 41.68 -59 41 C-58.05640625 40.85304687 -57.1128125 40.70609375 -56.140625 40.5546875 C-32.97913496 36.5084031 -15.72334457 21.80333187 0 5 C0.33 4.34 0.66 3.68 1 3 C0.08734375 3.72703125 0.08734375 3.72703125 -0.84375 4.46875 C-8.72987745 10.49931805 -17.04920904 14.7772931 -26 19 C-26.66 18.34 -27.32 17.68 -28 17 C-27.47792969 16.79246094 -26.95585937 16.58492187 -26.41796875 16.37109375 C-20.7054529 13.98004071 -15.64358077 10.99821067 -10.48046875 7.5859375 C-8.36260678 6.23183992 -6.27111118 5.06938102 -4 4 C-4 3.34 -4 2.68 -4 2 C-2.125 0.9375 -2.125 0.9375 0 0 Z " fill="#038C9C" transform="translate(236,150)"/>
<path d="M0 0 C4.95625534 0.3903278 7.55628192 2.89487445 10.875 6.3125 C11.4016626 6.85156982 11.9283252 7.39063965 12.47094727 7.94604492 C25.43232004 21.6528511 31.41248504 40.96527111 31.0625 59.625 C30.54336118 69.07702636 26.79254653 77.44449033 23 86 C22.01 86 21.02 86 20 86 C20.26554687 85.443125 20.53109375 84.88625 20.8046875 84.3125 C28.76808404 67.10691332 29.25710766 47.88865888 23 30 C18.81161162 19.01053081 11.7112688 10.63050028 2.65625 3.21484375 C1.7796875 2.48394531 0.903125 1.75304687 0 1 C0 0.67 0 0.34 0 0 Z " fill="#0588AB" transform="translate(166,76)"/>
<path d="M0 0 C0.66 0.99 1.32 1.98 2 3 C-20.24852071 19 -20.24852071 19 -29 19 C-29 20.32 -29 21.64 -29 23 C-26.2705414 22.85856168 -23.54151877 22.71200471 -20.8125 22.5625 C-20.04357422 22.52318359 -19.27464844 22.48386719 -18.48242188 22.44335938 C-15.26701496 22.26395899 -12.28283978 22.06521135 -9.13671875 21.33984375 C-7 21 -7 21 -4 23 C-15.64589276 27.50808752 -27.29332582 27.18405207 -39 23 C-39.66 22.67 -40.32 22.34 -41 22 C-41 21.34 -41 20.68 -41 20 C-39.25976562 19.56300781 -39.25976562 19.56300781 -37.484375 19.1171875 C-22.74065711 15.30112917 -11.54213607 10.22433314 0 0 Z " fill="#008FD0" transform="translate(77,164)"/>
<path d="M0 0 C-0.99 0.33 -1.98 0.66 -3 1 C-3 1.66 -3 2.32 -3 3 C-3.52207031 3.18433594 -4.04414062 3.36867188 -4.58203125 3.55859375 C-18.93969215 9.21616591 -30.17626116 21.32306915 -36.45703125 35.2109375 C-41.85638389 48.0116127 -42.53853144 60.2375299 -42 74 C-42.33 73.01 -42.66 72.02 -43 71 C-43.99 71 -44.98 71 -46 71 C-45.40581306 48.65857096 -39.91453455 29.39791995 -24 13 C-22.36927384 11.62294236 -20.7133562 10.27277889 -19 9 C-18.34 8.34 -17.68 7.68 -17 7 C-15.39372429 5.97019257 -13.76583948 4.97379197 -12.125 4 C-10.82949219 3.2265625 -10.82949219 3.2265625 -9.5078125 2.4375 C-8.68023437 1.963125 -7.85265625 1.48875 -7 1 C-5.94425781 0.38125 -5.94425781 0.38125 -4.8671875 -0.25 C-3 -1 -3 -1 0 0 Z " fill="#047CA7" transform="translate(104,68)"/>
<path d="M0 0 C-1.38444532 4.15333595 -4.29020757 5.53031224 -7.8125 7.8125 C-8.49248047 8.25537354 -9.17246094 8.69824707 -9.87304688 9.15454102 C-23.81377214 18.10267055 -36.62798031 22.20190307 -53.1875 22.3125 C-54.00162354 22.31813965 -54.81574707 22.3237793 -55.65454102 22.32958984 C-62.68537818 22.24250694 -62.68537818 22.24250694 -66 20 C-60.55309162 19.23552163 -55.43889741 19.01849521 -49.9375 19.1875 C-33.30555994 19.28769241 -19.78230105 13.10841241 -6.64404297 3.30224609 C-2.19731809 0 -2.19731809 0 0 0 Z " fill="#00CBC7" transform="translate(220,170)"/>
<path d="M0 0 C2.84913099 1.02076205 2.84913099 1.02076205 5.87109375 0.875 C6.36609375 2.855 6.36609375 2.855 6.87109375 4.875 C4.266562 4.23061067 1.66246465 3.5845496 -0.94140625 2.9375 C-1.67939453 2.75509766 -2.41738281 2.57269531 -3.17773438 2.38476562 C-6.19951609 1.6327385 -9.17347343 0.86014427 -12.12890625 -0.125 C-15.8748673 -0.35746212 -19.62648898 -0.31017508 -23.37890625 -0.3125 C-24.40371094 -0.32474609 -25.42851563 -0.33699219 -26.484375 -0.34960938 C-32.12936285 -0.36050703 -36.78875569 0.04924582 -42.12890625 1.875 C-42.78890625 1.875 -43.44890625 1.875 -44.12890625 1.875 C-44.12890625 1.215 -44.12890625 0.555 -44.12890625 -0.125 C-29.68557061 -5.05687071 -14.43812637 -4.55441445 0 0 Z " fill="#028AB1" transform="translate(150.12890625,66.125)"/>
<path d="M0 0 C4.50604094 1.4161843 6.74818418 3.63835781 10 7 C10.87398437 7.86238281 11.74796875 8.72476563 12.6484375 9.61328125 C17.33321164 14.25107341 21.88545651 18.92187093 26.1640625 23.94140625 C29.91417982 28.14632503 33.98117205 32.0539476 38 36 C33.80321342 36 31.87566772 33.79166616 29 31 C27.95448927 29.82108833 26.92419991 28.62857109 25.90625 27.42578125 C21.58658616 22.44392092 16.93395825 17.82440148 12.25 13.1875 C10.97576172 11.9200293 10.97576172 11.9200293 9.67578125 10.62695312 C8.10955794 9.06938982 6.54230258 7.51286304 4.97363281 5.95776367 C4.32233398 5.31170166 3.67103516 4.66563965 3 4 C2.41831055 3.43966064 1.83662109 2.87932129 1.23730469 2.30200195 C0 1 0 1 0 0 Z " fill="#038B9B" transform="translate(83,196)"/>
<path d="M0 0 C0.66 0.33 1.32 0.66 2 1 C3 4 3 4 1.8125 6.5625 C-0.02001957 9.02692286 -1.17445421 9.92824125 -4 11 C-2.62594577 8.04049858 -0.98223068 5.58504604 1 3 C0.08734375 3.72703125 0.08734375 3.72703125 -0.84375 4.46875 C-8.72987745 10.49931805 -17.04920904 14.7772931 -26 19 C-26.66 18.34 -27.32 17.68 -28 17 C-27.47792969 16.79246094 -26.95585937 16.58492187 -26.41796875 16.37109375 C-20.7054529 13.98004071 -15.64358077 10.99821067 -10.48046875 7.5859375 C-8.36260678 6.23183992 -6.27111118 5.06938102 -4 4 C-4 3.34 -4 2.68 -4 2 C-2.125 0.9375 -2.125 0.9375 0 0 Z " fill="#037A94" transform="translate(236,150)"/>
<path d="M0 0 C0.495 1.485 0.495 1.485 1 3 C-2.54139407 6.64099578 -6.12388344 10.15188557 -10 13.4375 C-12.72612943 15.78165736 -15.11625093 18.19274359 -17.4375 20.9375 C-20.65843703 24.74338882 -24.21151596 27.9864989 -27.984375 31.23828125 C-29.73248877 32.76618689 -31.38231867 34.33624547 -33 36 C-33 33 -33 33 -31.74719238 31.38642883 C-31.16095093 30.80684921 -30.57470947 30.22726959 -29.97070312 29.63012695 C-29.31001831 28.96966873 -28.6493335 28.30921051 -27.96862793 27.6287384 C-27.24679321 26.92238754 -26.5249585 26.21603668 -25.78125 25.48828125 C-25.04878052 24.76005661 -24.31631104 24.03183197 -23.56164551 23.28153992 C-21.21469173 20.95141304 -18.85753427 18.63191672 -16.5 16.3125 C-14.9094745 14.73701608 -13.31962177 13.16085266 -11.73046875 11.58398438 C-7.82809217 7.7147303 -3.91728183 3.85415989 0 0 Z " fill="#039DA1" transform="translate(163,202)"/>
<path d="M0 0 C0.66 0 1.32 0 2 0 C1.67 1.258125 1.34 2.51625 1 3.8125 C-0.95247132 12.76015635 -0.51214887 20.53321254 3 29 C2.01 29 1.02 29 0 29 C-4.42046972 22.87934962 -4.7607316 16.35044562 -4 9 C-2.9546998 5.82301775 -1.61720289 2.92396058 0 0 Z " fill="#01BAC8" transform="translate(133,145)"/>
<path d="M0 0 C0.66 0 1.32 0 2 0 C0.33536962 4.28642324 -2.79075837 7.08617217 -6 10.25 C-6.5465625 10.80429688 -7.093125 11.35859375 -7.65625 11.9296875 C-11.7466133 16 -11.7466133 16 -14 16 C-14 15.01 -14 14.02 -14 13 C-15.98 13.66 -17.96 14.32 -20 15 C-19 12 -19 12 -16.625 10.75 C-16.09648437 10.50894531 -15.56796875 10.26789063 -15.0234375 10.01953125 C-9.77040346 7.37273224 -4.16880369 4.16880369 0 0 Z " fill="#01D5D8" transform="translate(235,153)"/>
<path d="M0 0 C3.69314661 1.23647199 5.00231632 3.24346378 6.73999023 6.64575195 C7.03204346 7.25765381 7.32409668 7.86955566 7.625 8.5 C7.93058838 9.1293042 8.23617676 9.7586084 8.55102539 10.40698242 C12.15257426 18.0946593 14.128029 26.47342789 13 35 C11.984375 37.2578125 11.984375 37.2578125 11 39 C10.97421875 37.90042969 10.9484375 36.80085938 10.921875 35.66796875 C10.50087723 23.28221428 8.59440057 14.05744941 1 4 C0.35546875 1.80859375 0.35546875 1.80859375 0 0 Z " fill="#00D3F0" transform="translate(161,99)"/>
<path d="M0 0 C4.95699867 0.39038634 7.55498709 2.89556018 10.875 6.3125 C11.65738037 7.10914062 11.65738037 7.10914062 12.45556641 7.921875 C17.18659317 12.90653289 21.69247015 18.45213751 24 25 C23.1640625 27.34375 23.1640625 27.34375 22 29 C21.62875 28.030625 21.2575 27.06125 20.875 26.0625 C16.99793706 17.14166536 10.97789109 10.63534008 4 4 C2.66322582 2.67011641 1.32881615 1.33783526 0 0 Z " fill="#0290B5" transform="translate(166,76)"/>
<path d="M0 0 C0 0.66 0 1.32 0 2 C-1.05574219 2.00386719 -1.05574219 2.00386719 -2.1328125 2.0078125 C-12.49622539 2.41369029 -21.72383754 5.71764031 -30 12 C-30.66 12 -31.32 12 -32 12 C-29.9173374 6.79334351 -25.83876084 5.3206302 -21 3 C-14.32121361 0.21717234 -7.1745191 -0.18396203 0 0 Z " fill="#00D1F0" transform="translate(133,83)"/>
<path d="M0 0 C0.66 0.66 1.32 1.32 2 2 C-2.19227271 6.31018038 -6.51180628 10.37336093 -11.07421875 14.2890625 C-12.92812961 15.93614761 -14.65375701 17.65343792 -16.375 19.4375 C-19 22 -19 22 -21 22 C-21.33 20.68 -21.66 19.36 -22 18 C-21.43796875 17.93039063 -20.8759375 17.86078125 -20.296875 17.7890625 C-17.10970215 16.69414938 -15.56043974 14.81052724 -13.25 12.375 C-9.01581519 8.00260738 -4.65056335 3.92310093 0 0 Z " fill="#008FD2" transform="translate(88,137)"/>
<path d="M0 0 C0.72896484 -0.00386719 1.45792969 -0.00773437 2.20898438 -0.01171875 C5.42107736 -0.0058304 7.9946444 0.10238147 11.0625 1.125 C11.0625 1.785 11.0625 2.445 11.0625 3.125 C3.4725 3.455 -4.1175 3.785 -11.9375 4.125 C-11.2775 3.795 -10.6175 3.465 -9.9375 3.125 C-9.9375 2.465 -9.9375 1.805 -9.9375 1.125 C-6.79444562 -0.44652719 -3.446226 -0.01818589 0 0 Z " fill="#00234B" transform="translate(126.9375,85.875)"/>
<path d="M0 0 C-0.99 0.33 -1.98 0.66 -3 1 C-3 1.66 -3 2.32 -3 3 C-3.52207031 3.18433594 -4.04414062 3.36867188 -4.58203125 3.55859375 C-10.85241979 6.02941235 -15.51868621 9.60434344 -20.6171875 13.9765625 C-23 16 -23 16 -26 18 C-25.74182981 14.51470237 -24.75978828 13.78534272 -22.0625 11.375 C-20.5465625 10.199375 -20.5465625 10.199375 -19 9 C-18.34 8.34 -17.68 7.68 -17 7 C-15.39372429 5.97019257 -13.76583948 4.97379197 -12.125 4 C-11.26132813 3.484375 -10.39765625 2.96875 -9.5078125 2.4375 C-8.68023437 1.963125 -7.85265625 1.48875 -7 1 C-6.29617187 0.5875 -5.59234375 0.175 -4.8671875 -0.25 C-3 -1 -3 -1 0 0 Z " fill="#038EB7" transform="translate(104,68)"/>
<path d="M0 0 C0.33 0.99 0.66 1.98 1 3 C-9.00340028 4.95528941 -19.24255563 6.8181304 -29 3 C-29.33 2.34 -29.66 1.68 -30 1 C-29.15566406 1.16113281 -28.31132813 1.32226562 -27.44140625 1.48828125 C-23.89474932 2.01565021 -20.52174419 2.16799922 -16.9375 2.1875 C-15.15666016 2.20876953 -15.15666016 2.20876953 -13.33984375 2.23046875 C-8.51929771 1.89782288 -4.91209929 -0.28069139 0 0 Z " fill="#03658E" transform="translate(73,187)"/>
<path d="M0 0 C8.25 0.33 16.5 0.66 25 1 C24.67 1.99 24.34 2.98 24 4 C21.9375 4.6875 21.9375 4.6875 20 5 C20 4.34 20 3.68 20 3 C19.33613281 3.18433594 18.67226562 3.36867187 17.98828125 3.55859375 C14.25973787 4.10934591 10.87507217 3.63063313 7.1875 3.0625 C6.49462891 2.96259766 5.80175781 2.86269531 5.08789062 2.75976562 C3.39082787 2.51398412 1.69524541 2.25801848 0 2 C0 1.34 0 0.68 0 0 Z " fill="#00CFCD" transform="translate(141,198)"/>
<path d="M0 0 C0.66 0.99 1.32 1.98 2 3 C-16.07692308 16 -16.07692308 16 -21 16 C-21 15.34 -21 14.68 -21 14 C-20.40574219 13.74347656 -19.81148437 13.48695313 -19.19921875 13.22265625 C-11.87041849 9.83750279 -6.06285782 5.29059266 0 0 Z " fill="#01A4DD" transform="translate(77,164)"/>
<path d="M0 0 C2.31 0 4.62 0 7 0 C4.75552339 2.5811481 3.2506864 3.1873284 0 4 C-0.495 4.495 -0.99 4.99 -1.5 5.5 C-3.80236686 7.80236686 -6.09435098 7.99140695 -9.29003906 8.02172852 C-10.5154541 7.95103149 -10.5154541 7.95103149 -11.765625 7.87890625 C-12.65507812 7.83056641 -13.54453125 7.78222656 -14.4609375 7.73242188 C-15.38132813 7.67634766 -16.30171875 7.62027344 -17.25 7.5625 C-18.18585938 7.51029297 -19.12171875 7.45808594 -20.0859375 7.40429688 C-22.39098887 7.27493175 -24.69557289 7.13997966 -27 7 C-27 6.67 -27 6.34 -27 6 C-26.13834229 5.97812622 -26.13834229 5.97812622 -25.25927734 5.95581055 C-22.63054304 5.88086275 -20.00301448 5.78436006 -17.375 5.6875 C-16.47136719 5.66494141 -15.56773437 5.64238281 -14.63671875 5.61914062 C-9.40830689 5.40924088 -5.50262091 4.95074671 -1 2 C-0.67 1.34 -0.34 0.68 0 0 Z " fill="#017286" transform="translate(173,192)"/>
<path d="M0 0 C4.18189449 1.77989724 5.19368173 3.84546798 7 8 C6.01 8 5.02 8 4 8 C2 5 2 5 2 2 C1.34 2 0.68 2 0 2 C-0.33 2.99 -0.66 3.98 -1 5 C-2.32 5 -3.64 5 -5 5 C-5.20625 5.639375 -5.4125 6.27875 -5.625 6.9375 C-7 9 -7 9 -10.125 9.75 C-11.548125 9.87375 -11.548125 9.87375 -13 10 C-10.53511103 7.33857503 -7.79550348 5.36573616 -4.8125 3.3125 C-3.91144531 2.68988281 -3.01039062 2.06726563 -2.08203125 1.42578125 C-1.39496094 0.95527344 -0.70789063 0.48476562 0 0 Z " fill="#019FBB" transform="translate(109,176)"/>
<path d="M0 0 C0 3 0 3 -2.01953125 5.36010742 C-3.40205078 6.71906128 -3.40205078 6.71906128 -4.8125 8.10546875 C-5.30081299 8.5895369 -5.78912598 9.07360504 -6.29223633 9.57234192 C-7.85459826 11.1179014 -9.42706327 12.65271107 -11 14.1875 C-12.06057762 15.23303282 -13.12048229 16.27924873 -14.1796875 17.32617188 C-16.77869434 19.89208902 -19.3868639 22.44846467 -22 25 C-22 19.7761085 -17.50970538 16.58756574 -14 13 C-12.00375892 11.16330979 -9.9693601 9.39231447 -7.8984375 7.640625 C-5.1142564 5.23454257 -2.56885928 2.63308076 0 0 Z " fill="#00D2C6" transform="translate(159,204)"/>
<path d="M0 0 C4.64979288 4.13018852 6.67978144 10.04649823 7.17626953 16.17626953 C7.34130062 21.12408844 7.20868214 26.05539253 7 31 C6.34 31.33 5.68 31.66 5 32 C5 25.73 5 19.46 5 13 C4.34 13 3.68 13 3 13 C2.06576355 9.98968256 1.95550089 9.13349732 3 6 C2.34 6 1.68 6 1 6 C0.67 4.02 0.34 2.04 0 0 Z " fill="#025985" transform="translate(165,107)"/>
<path d="M0 0 C-1.09890431 3.29671293 -1.50432255 3.62009221 -4.2734375 5.41015625 C-4.9334375 5.84263672 -5.5934375 6.27511719 -6.2734375 6.72070312 C-6.96695313 7.16349609 -7.66046875 7.60628906 -8.375 8.0625 C-9.06078125 8.50916016 -9.7465625 8.95582031 -10.453125 9.41601562 C-11.73245942 10.24857859 -13.01397678 11.07780358 -14.29833984 11.90258789 C-15.87554583 12.91973867 -17.43845318 13.95896879 -19 15 C-21.1875 14.625 -21.1875 14.625 -23 14 C-22.23816406 13.57589844 -21.47632813 13.15179688 -20.69140625 12.71484375 C-14.65441302 9.28559042 -9.07941601 5.73284667 -3.7421875 1.28515625 C-2 0 -2 0 0 0 Z " fill="#00D9D7" transform="translate(220,170)"/>
<path d="M0 0 C1.83995874 2.75993811 2.60601763 4.6210617 3.5 7.75 C3.75652344 8.63042969 4.01304688 9.51085937 4.27734375 10.41796875 C4.72019932 12.00027973 5.15246142 13.58566214 5.56640625 15.17578125 C5.99300679 16.79820692 6.48995024 18.40184409 7 20 C7.66 20.33 8.32 20.66 9 21 C8.01 21 7.02 21 6 21 C1.76566986 14.08392744 -0.33763282 8.27200399 0 0 Z " fill="#026492" transform="translate(60,139)"/>
<path d="M0 0 C0.33 0 0.66 0 1 0 C1.33 7.59 1.66 15.18 2 23 C1.67 22.01 1.34 21.02 1 20 C0.01 20 -0.98 20 -2 20 C-1.85879984 17.41633755 -1.71221667 14.83317115 -1.5625 12.25 C-1.52318359 11.52039063 -1.48386719 10.79078125 -1.44335938 10.0390625 C-1.23852902 6.5727027 -0.9147998 3.34666974 0 0 Z " fill="#05709D" transform="translate(60,119)"/>
<path d="M0 0 C6.93 0.33 13.86 0.66 21 1 C16.75914319 3.1204284 14.59704651 3.29780112 9.9375 3.3125 C8.70902344 3.32925781 7.48054687 3.34601563 6.21484375 3.36328125 C3 3 3 3 0 0 Z " fill="#00DADF" transform="translate(167,175)"/>
<path d="M0 0 C-4.62369023 1.80679587 -8.42528653 2.21839082 -13.375 2.125 C-14.62023438 2.10695312 -15.86546875 2.08890625 -17.1484375 2.0703125 C-18.55996094 2.03550781 -18.55996094 2.03550781 -20 2 C-17.23377141 -0.76622859 -14.96578682 -0.69104973 -11.125 -1.25 C-9.27261719 -1.53617188 -9.27261719 -1.53617188 -7.3828125 -1.828125 C-4.06651813 -1.99662033 -2.70124868 -1.81893128 0 0 Z " fill="#009EDF" transform="translate(73,187)"/>
<path d="M0 0 C-1.45855647 3.68646141 -3.30229045 5.16143971 -6.625 7.25 C-7.44226563 7.77078125 -8.25953125 8.2915625 -9.1015625 8.828125 C-10.04128906 9.40820312 -10.04128906 9.40820312 -11 10 C-11.66 9.34 -12.32 8.68 -13 8 C-11.72992786 7.0406581 -10.45891081 6.08256706 -9.1875 5.125 C-8.47980469 4.59132812 -7.77210937 4.05765625 -7.04296875 3.5078125 C-2.29015544 0 -2.29015544 0 0 0 Z " fill="#00B3E8" transform="translate(98,169)"/>
<path d="M0 0 C-0.66 1.65 -1.32 3.3 -2 5 C-7.75 4.125 -7.75 4.125 -10 3 C-10 2.34 -10 1.68 -10 1 C-8.71073008 0.63720544 -7.41846728 0.28503302 -6.125 -0.0625 C-5.40570313 -0.25972656 -4.68640625 -0.45695313 -3.9453125 -0.66015625 C-2 -1 -2 -1 0 0 Z " fill="#0185C3" transform="translate(46,183)"/>
<path d="M0 0 C0 0.66 0 1.32 0 2 C-4.15626368 3.00926479 -8.04365094 3.10239579 -12.3125 3.0625 C-13.56675781 3.05347656 -14.82101563 3.04445312 -16.11328125 3.03515625 C-17.06589844 3.02355469 -18.01851562 3.01195312 -19 3 C-19 2.67 -19 2.34 -19 2 C-12.6221448 0.82706111 -6.49678438 -0.29530838 0 0 Z " fill="#003054" transform="translate(190,173)"/>
<path d="M0 0 C0.68489252 2.31151227 0.9967146 4.13470138 0.9375 6.5625 C0.78998225 9.26259624 0.78998225 9.26259624 3 12 C3.70164642 13.98799818 4.37372872 15.98698517 5 18 C4.34 18 3.68 18 3 18 C-1.02830983 13.49777137 -1.40971491 10.12693915 -1.23828125 4.171875 C-1 2 -1 2 0 0 Z " fill="#018BC5" transform="translate(166,145)"/>
<path d="M0 0 C2.31 0 4.62 0 7 0 C6 3 6 3 3.25 4.8125 C0 6 0 6 -2.875 5.1875 C-3.57625 4.795625 -4.2775 4.40375 -5 4 C-5 3.67 -5 3.34 -5 3 C-2.36 3 0.28 3 3 3 C3 2.34 3 1.68 3 1 C2.01 0.67 1.02 0.34 0 0 Z " fill="#002C4C" transform="translate(166,192)"/>
<path d="M0 0 C-0.61875 0.598125 -1.2375 1.19625 -1.875 1.8125 C-4.13676954 4.00811144 -4.13676954 4.00811144 -6 7 C-6.99 5.35 -7.98 3.7 -9 2 C-3.375 -1.125 -3.375 -1.125 0 0 Z " fill="#019AB6" transform="translate(91,190)"/>
<path d="M0 0 C1.08203125 1.83203125 1.08203125 1.83203125 2 4 C1.01873444 6.00925805 0.0150089 8.00757511 -1 10 C-1.53806428 12.98870248 -1.80480182 15.97106265 -2 19 C-2.33 19 -2.66 19 -3 19 C-3.39325819 12.02330843 -2.63096039 6.48343811 0 0 Z " fill="#003966" transform="translate(92,108)"/>
<path d="M0 0 C5.11791642 -0.10662326 9.92928099 0.28832014 15 1 C15.33 2.32 15.66 3.64 16 5 C10.72 3.68 5.44 2.36 0 1 C0 0.67 0 0.34 0 0 Z " fill="#0397BE" transform="translate(141,66)"/>
<path d="M0 0 C1.68156755 2.52235132 3.16468006 5.03586642 4.625 7.6875 C5.07101563 8.49574219 5.51703125 9.30398437 5.9765625 10.13671875 C6.31429687 10.75160156 6.65203125 11.36648437 7 12 C1.81320401 10.81046621 1.81320401 10.81046621 0 8 C-0.25250174 5.28157705 -0.13481379 2.74121365 0 0 Z " fill="#00B6C7" transform="translate(153,159)"/>
<path d="M0 0 C0.66 0.33 1.32 0.66 2 1 C2.625 3.0625 2.625 3.0625 3 5 C4.65 5.33 6.3 5.66 8 6 C8 6.33 8 6.66 8 7 C4.67179946 7.22692276 2.58198664 7.32162419 -0.375 5.6875 C-2 4 -2 4 -2 1 C-1.34 0.67 -0.68 0.34 0 0 Z " fill="#012B59" transform="translate(75,185)"/>
<path d="M0 0 C0.66 0.33 1.32 0.66 2 1 C1.38125 1.2475 0.7625 1.495 0.125 1.75 C-2.16137472 2.81105913 -2.16137472 2.81105913 -2.875 5.0625 C-3.24625 5.701875 -3.6175 6.34125 -4 7 C-7.125 7.75 -7.125 7.75 -10 8 C-7.92141021 5.81907964 -5.78143382 4.03609531 -3.3125 2.3125 C-2.68988281 1.87550781 -2.06726563 1.43851563 -1.42578125 0.98828125 C-0.95527344 0.66214844 -0.48476562 0.33601562 0 0 Z " fill="#0094B4" transform="translate(106,178)"/>
<path d="M0 0 C0.66 0.66 1.32 1.32 2 2 C-6.261959 6.59225513 -6.261959 6.59225513 -11 6 C-7.58983503 3.13546142 -4.09305456 1.65296434 0 0 Z " fill="#00B1EB" transform="translate(81,180)"/>
<path d="M0 0 C1.8871875 0.0309375 1.8871875 0.0309375 3.8125 0.0625 C0.94950494 2.92549506 -0.84602284 3.05671225 -4.875 3.125 C-5.968125 3.104375 -7.06125 3.08375 -8.1875 3.0625 C-6.45706736 -0.39836529 -3.47359009 -0.0569441 0 0 Z " fill="#00C7D0" transform="translate(197.1875,172.9375)"/>
<path d="M0 0 C4.92432253 1.68833915 8.3435645 4.3435645 12 8 C7.25 7.125 7.25 7.125 5 6 C5 5.34 5 4.68 5 4 C2.525 3.01 2.525 3.01 0 2 C0 1.34 0 0.68 0 0 Z " fill="#01AFC3" transform="translate(115,184)"/>
<path d="M0 0 C-0.33 0.66 -0.66 1.32 -1 2 C-3.72265625 2.8515625 -3.72265625 2.8515625 -7.0625 3.625 C-8.16722656 3.88539063 -9.27195313 4.14578125 -10.41015625 4.4140625 C-11.26480469 4.60742188 -12.11945312 4.80078125 -13 5 C-9.15304156 0.94179239 -5.60773394 -0.32044194 0 0 Z " fill="#04668E" transform="translate(55,178)"/>
<path d="M0 0 C5.75 0.75 5.75 0.75 8 3 C8.125 6.125 8.125 6.125 8 9 C7.34 8.01 6.68 7.02 6 6 C5.02149805 4.97895449 4.02019573 3.9793879 3 3 C2 2 1 1 0 0 Z " fill="#00D8EF" transform="translate(151,123)"/>
<path d="M0 0 C-1.26239712 0.86658615 -2.53527501 1.71792059 -3.8125 2.5625 C-4.87404297 3.27599609 -4.87404297 3.27599609 -5.95703125 4.00390625 C-8 5 -8 5 -11 4 C-9.73760288 3.13341385 -8.46472499 2.28207941 -7.1875 1.4375 C-6.47980469 0.96183594 -5.77210937 0.48617187 -5.04296875 -0.00390625 C-3 -1 -3 -1 0 0 Z " fill="#02648D" transform="translate(67,173)"/>
<path d="M0 0 C3.53586014 3.17320782 5.58578031 5.16743695 6 10 C3.66475218 7.74259377 1.81294927 5.7194239 0 3 C0 2.01 0 1.02 0 0 Z " fill="#00D2EC" transform="translate(180,91)"/>
<path d="M0 0 C1.8125 0.875 1.8125 0.875 2.8125 2.875 C-1.6425 3.37 -1.6425 3.37 -6.1875 3.875 C-2.76553468 -0.15803055 -2.76553468 -0.15803055 0 0 Z " fill="#008ECC" transform="translate(180.1875,162.125)"/>
<path d="M0 0 C0.70125 0.144375 1.4025 0.28875 2.125 0.4375 C5.07556141 1.01478375 8.03270151 1.51695141 11 2 C10.67 2.99 10.34 3.98 10 5 C6.08788267 3.84414715 3.1254959 2.64465038 0 0 Z " fill="#00A1C6" transform="translate(142,88)"/>
<path d="M0 0 C2.66666667 1.33333333 5.33333333 2.66666667 8 4 C8 4.66 8 5.32 8 6 C4.9168649 4.80100302 1.93720508 3.52299523 -1 2 C-0.67 1.34 -0.34 0.68 0 0 Z " fill="#0295B9" transform="translate(158,70)"/>
<path d="M0 0 C2.52259061 1.97420135 2.9929808 2.96745642 3.6875 6.1875 C3.790625 7.115625 3.89375 8.04375 4 9 C3.34 9 2.68 9 2 9 C0.50178941 5.62902617 0 3.79557881 0 0 Z " fill="#00D1EB" transform="translate(187,103)"/>
<path d="M0 0 C5.75 0.75 5.75 0.75 8 3 C8 3.66 8 4.32 8 5 C4.62496331 3.8141763 2.35277269 2.72426311 0 0 Z " fill="#00B6B5" transform="translate(141,183)"/>
<path d="M0 0 C2.29633824 3.44450737 2.54016485 5.93812283 3 10 C0.11192273 7.61419704 -0.61954948 5.70939253 -1 2 C-0.67 1.34 -0.34 0.68 0 0 Z " fill="#008DCF" transform="translate(89,127)"/>
</svg>
